<svg xmlns="http://www.w3.org/2000/svg" width="3000" height="460.156"><path style="fill:#f36f21;fill-opacity:1;fill-rule:evenodd;stroke:none" d="m0 0-3.778.815-.836 3.773-3.678-1.183-2.609 2.849-2.596-2.864-3.685 1.163-.816-3.775-3.773-.836 1.183-3.68-2.849-2.61 2.863-2.594-1.163-3.685 3.777-.814.835-3.774 3.681 1.181 2.609-2.848 2.594 2.863 3.686-1.163.816 3.776 3.772.838-1.184 3.679L1.701-6.28l-2.865 2.595L0 0Zm-10.873 2.387c-4.804 0-8.712-3.909-8.712-8.71 0-4.804 3.908-8.712 8.712-8.712 4.802 0 8.71 3.908 8.71 8.712 0 4.801-3.908 8.71-8.71 8.71m-5.493-3.273c3.032 3.032 7.964 3.032 10.994.001 3.029-3.03 3.03-7.961-.001-10.993-3.03-3.03-7.961-3.03-10.992.001-3.031 3.031-3.031 7.961-.001 10.991M57.359-2.26v-6.604c0-1.282-.2-2.203-.601-2.765-.404-.559-1.06-.842-1.956-.842-.791 0-1.344.26-1.655.77-.311.512-.466 1.286-.466 2.327v7.114h-3.305v-7.749c0-.78.069-1.49.2-2.13.13-.643.359-1.186.684-1.633.327-.448.77-.792 1.339-1.036.568-.244 1.29-.367 2.178-.367.698 0 1.379.163 2.049.488.625.306 1.14.801 1.55 1.467v-1.637h3.292V-2.26h-3.31zM11.383-8.295l2.345 6.374 2.297-6.374h-4.642zM15.7 2.36h-3.918L5.213-15.01h3.699l1.429 3.884h6.706l1.4-3.884h3.749L15.7 2.36zm26.394-6.886c-.551 0-1.016-.128-1.385-.378a2.921 2.921 0 0 1-.915-.977 4.173 4.173 0 0 1-.5-1.315 6.941 6.941 0 0 1 0-2.813 4.41 4.41 0 0 1 .475-1.28c.218-.38.518-.693.888-.937.377-.246.828-.366 1.367-.366.829 0 1.462.231 1.909.695.447.464.728 1.085.844 1.864h3.337c-.229-1.673-.879-2.947-1.951-3.827-1.07-.876-2.442-1.316-4.114-1.316-.944 0-1.807.161-2.595.475a5.77 5.77 0 0 0-2.011 1.33 6.006 6.006 0 0 0-1.291 2.033c-.311.788-.463 1.654-.463 2.595 0 .977.141 1.88.425 2.719a6.13 6.13 0 0 0 1.256 2.168 5.731 5.731 0 0 0 2.023 1.425c.793.34 1.704.51 2.729.51.745 0 1.466-.096 2.155-.292a5.733 5.733 0 0 0 1.851-.888 4.83 4.83 0 0 0 1.328-1.487c.343-.594.536-1.295.587-2.108h-3.388c-.23 1.446-1.083 2.17-2.561 2.17m-13.684 0c-.555 0-1.016-.128-1.386-.378a2.916 2.916 0 0 1-.913-.976 4.085 4.085 0 0 1-.504-1.315 7.153 7.153 0 0 1-.143-1.425c0-.455.046-.917.143-1.39.1-.468.26-.895.476-1.278.22-.381.516-.694.89-.938.375-.246.828-.366 1.368-.366.827 0 1.46.231 1.908.695.448.464.725 1.085.843 1.864h3.337c-.23-1.673-.879-2.947-1.95-3.827-1.073-.876-2.444-1.316-4.118-1.316-.94 0-1.804.161-2.592.475a5.712 5.712 0 0 0-2.01 1.33 5.95 5.95 0 0 0-1.293 2.033c-.309.788-.465 1.654-.465 2.595 0 .977.142 1.88.425 2.719.284.834.707 1.56 1.256 2.168a5.785 5.785 0 0 0 2.025 1.425c.793.34 1.702.51 2.73.51a7.83 7.83 0 0 0 2.152-.292 5.749 5.749 0 0 0 1.854-.888c.543-.4.986-.895 1.326-1.487.345-.594.54-1.295.587-2.108h-3.386c-.228 1.446-1.082 2.17-2.56 2.17M148.83-2.43v-2.337h.048c.161.39.381.75.658 1.084.274.33.59.615.948.85.357.237.738.418 1.144.548.405.13.826.196 1.265.196.227 0 .477-.042.754-.122v-3.212a7.106 7.106 0 0 1-1.24.122c-.633 0-1.17-.106-1.607-.317a2.802 2.802 0 0 1-1.059-.863 3.507 3.507 0 0 1-.572-1.278A6.99 6.99 0 0 1 149-9.341v-5.67h-3.456v12.58h3.286zm-8.798-2.944c-.413.453-1.042.68-1.886.68-.551 0-1.01-.093-1.374-.28a2.606 2.606 0 0 1-.877-.691 2.566 2.566 0 0 1-.462-.876 3.876 3.876 0 0 1-.158-.83h5.62c-.162.877-.45 1.542-.863 1.997m-3.905-6.618c.518-.504 1.266-.754 2.238-.754.698 0 1.298.174 1.8.523.502.349.81.717.925 1.106h3.04c-.485-1.508-1.231-2.586-2.237-3.236-1.006-.648-2.223-.973-3.65-.973-.99 0-1.882.159-2.676.474a5.577 5.577 0 0 0-2.02 1.35 6.117 6.117 0 0 0-1.277 2.093c-.301.812-.45 1.704-.45 2.676 0 .942.155 1.817.46 2.629.31.81.748 1.512 1.316 2.104a6.194 6.194 0 0 0 2.032 1.4c.788.34 1.659.51 2.615.51 1.07 0 2.003-.207 2.798-.621a5.55 5.55 0 0 0 1.958-1.666 6.802 6.802 0 0 0 1.107-2.385 8.78 8.78 0 0 0 .244-2.796h-9.075c.049-1.12.33-1.931.852-2.434M122.3 2.363v-6.545h.073c.437.73.998 1.26 1.678 1.594.68.332 1.347.5 1.995.5.925 0 1.684-.128 2.277-.379.59-.252 1.057-.6 1.397-1.045.342-.447.58-.99.718-1.63.138-.642.206-1.352.206-2.13v-7.738h-3.453v7.105c0 1.038-.163 1.813-.487 2.324-.324.51-.902.766-1.728.766-.941 0-1.622-.279-2.043-.839-.422-.559-.633-1.48-.633-2.762v-6.594h-3.291V2.363h3.29zM117-2.43v-2.312h-2.531v-6.228c0-.584.098-.973.292-1.168.195-.194.584-.292 1.168-.292a5.631 5.631 0 0 1 1.071.098v-2.678a8.131 8.131 0 0 0-.974-.096 21.974 21.974 0 0 0-1.046-.024c-.535 0-1.042.036-1.52.11-.48.073-.901.214-1.266.424a2.257 2.257 0 0 0-.863.9c-.211.39-.316.9-.316 1.535v7.419h-2.092v2.312h2.092v3.77h3.454v-3.77h2.531zm-13.104-6.567a5.531 5.531 0 0 0-.705-.183c-.253-.048-.517-.09-.792-.121a13.084 13.084 0 0 1-.827-.122 6.14 6.14 0 0 1-.766-.195 2.275 2.275 0 0 1-.658-.327 1.577 1.577 0 0 1-.45-.525c-.114-.211-.17-.478-.17-.803 0-.307.056-.567.17-.78.113-.208.268-.375.464-.496.193-.122.42-.207.68-.255a4.23 4.23 0 0 1 .803-.073c.68 0 1.207.113 1.58.34.375.227.65.499.829.816.178.316.287.636.327.96.042.325.062.585.062.778v1.29a1.562 1.562 0 0 0-.547-.304M97.072-4.12c.357.537.81.966 1.36 1.29a5.987 5.987 0 0 0 1.863.694c.69.137 1.383.208 2.082.208.632 0 1.272-.045 1.92-.135a5.918 5.918 0 0 0 1.777-.522c.535-.26.974-.621 1.314-1.083.34-.463.51-1.076.51-1.837v-6.547c0-.567.034-1.11.099-1.628.064-.52.177-.91.34-1.17h-3.504a4.95 4.95 0 0 0-.242 1.219 4.517 4.517 0 0 0-1.948-1.194 7.845 7.845 0 0 0-2.287-.34c-.6 0-1.16.073-1.68.22a3.816 3.816 0 0 0-1.361.682 3.15 3.15 0 0 0-.912 1.166c-.22.47-.33 1.03-.33 1.679 0 .715.126 1.302.378 1.764.252.462.576.83.974 1.107.396.275.85.48 1.362.62.51.137 1.025.248 1.545.329.518.08 1.03.146 1.532.195.504.048.95.122 1.339.219.39.097.697.238.926.424.225.189.33.46.315.816 0 .374-.062.67-.183.888a1.34 1.34 0 0 1-.486.512 1.916 1.916 0 0 1-.706.242 5.705 5.705 0 0 1-.863.062c-.682 0-1.217-.146-1.606-.44-.39-.29-.617-.777-.682-1.458h-3.455c.049.81.252 1.484.609 2.018m-6.317-1.254c-.413.453-1.042.68-1.886.68-.55 0-1.009-.093-1.374-.28a2.612 2.612 0 0 1-.876-.691 2.587 2.587 0 0 1-.463-.876 4.071 4.071 0 0 1-.158-.83h5.622c-.163.877-.452 1.542-.865 1.997m-3.905-6.618c.52-.504 1.265-.754 2.24-.754.696 0 1.296.174 1.8.523.501.349.81.717.924 1.106h3.042c-.487-1.508-1.234-2.586-2.239-3.236-1.007-.648-2.223-.973-3.65-.973-.989 0-1.882.159-2.676.474a5.569 5.569 0 0 0-2.019 1.35 6.104 6.104 0 0 0-1.279 2.093c-.3.812-.449 1.704-.449 2.676 0 .942.153 1.817.462 2.629.308.81.745 1.512 1.314 2.104a6.163 6.163 0 0 0 2.032 1.4c.786.34 1.658.51 2.615.51 1.07 0 2.003-.207 2.798-.621a5.58 5.58 0 0 0 1.96-1.666 6.854 6.854 0 0 0 1.105-2.385 8.896 8.896 0 0 0 .244-2.796h-9.076c.05-1.12.333-1.931.852-2.434M75.363-15.01 72.418-3.185h-.05L69.475-15.01h-3.868l-4.6 17.373h3.82l2.75-11.824h.048L70.64 2.363h3.577l2.97-11.972h.048l2.846 11.972h3.747L79.158-15.01h-3.795z" transform="matrix(16.7153 0 0 -16.7153 411.756 124.537)"/></svg>