<svg width="531" height="216" fill="none" xmlns="http://www.w3.org/2000/svg"><path fill-rule="evenodd" clip-rule="evenodd" d="M434.868 179.383h-19.624a.625.625 0 0 0-.624.626v3.403c0 .346.279.626.624.626h12.215l-14.561 23.482a.627.627 0 0 0 .531.958h21.356a.626.626 0 0 0 .625-.627v-3.419a.625.625 0 0 0-.625-.626H420.95l14.449-23.468a.626.626 0 0 0-.531-.955ZM346.734 189.975c.313-3.606 4.221-6.429 8.702-6.429 4.124 0 8.153 1.806 8.789 6.506a.626.626 0 0 1-.621.707h-3.903a.614.614 0 0 1-.597-.442c-.407-1.515-1.933-2.172-3.46-2.172-1.354 0-2.918.523-3.439 1.36-.416.679-.469 1.463-.208 2.194.313.942 1.667 1.517 2.97 1.882l3.752.942c5.262 1.306 6.357 4.651 6.357 7.108 0 4.704-4.117 7.37-9.692 7.37-4.326 0-8.795-2.619-9.285-7.309a.628.628 0 0 1 .624-.688h3.766c.293 0 .538.206.609.491.453 1.817 2.116 3.01 4.703 3.01 2.448 0 4.325-1.097 4.325-2.927 0-1.568-1.616-2.456-3.388-2.874l-3.282-.784c-5.159-1.412-7.034-4.025-6.722-7.945ZM387.307 194.261c-.521-3.816-3.283-6.011-6.93-6.011-3.752 0-6.67 2.248-7.191 6.011h14.121Zm4.622 3.92h-18.743c.521 3.763 3.544 6.115 7.452 6.115 2.522 0 5-1.087 6.339-3.052a.624.624 0 0 1 .776-.221c1.037.469 2.184.959 3.256 1.43.342.15.479.567.291.89-2.25 3.861-6.563 5.658-10.923 5.658-6.93 0-12.505-5.07-12.505-12.806 0-7.736 5.575-12.649 12.505-12.649 6.93 0 12.193 4.913 12.193 12.649 0 .387 0 .916-.016 1.38a.627.627 0 0 1-.625.606ZM456.89 196.188c0-4.801-3.561-7.872-7.902-7.872-4.285 0-7.847 3.071-7.847 7.872 0 4.913 3.562 8.094 7.847 8.094 4.341 0 7.902-3.181 7.902-8.094Zm-20.562.007c0-7.736 5.784-12.649 12.662-12.649 6.93 0 12.766 4.913 12.766 12.649 0 7.736-5.836 12.805-12.766 12.805-6.878 0-12.662-5.069-12.662-12.805ZM484.814 196.188c0-4.801-3.562-7.872-7.903-7.872-4.285 0-7.847 3.071-7.847 7.872 0 4.913 3.562 8.094 7.847 8.094 4.341 0 7.903-3.181 7.903-8.094Zm-20.563.007c0-7.736 5.784-12.649 12.662-12.649 6.93 0 12.766 4.913 12.766 12.649 0 7.736-5.836 12.805-12.766 12.805-6.878 0-12.662-5.069-12.662-12.805ZM519.863 183.547a10.873 10.873 0 0 0-8.089 3.763 10.87 10.87 0 0 0-8.089-3.763c-6.082-.079-11.059 5.05-11.059 11.152v13.152c0 .346.28.627.624.627h4.118a.626.626 0 0 0 .625-.627v-13.209c0-3.12 2.545-5.77 5.655-5.712 3.015.057 5.443 2.527 5.443 5.566v13.355c0 .346.28.627.625.627h4.117a.626.626 0 0 0 .625-.627v-13.209c0-3.12 2.545-5.77 5.655-5.712 3.016.057 5.444 2.527 5.444 5.566v13.355c0 .346.279.627.624.627h4.118a.625.625 0 0 0 .624-.627v-13.152c0-6.102-4.977-11.231-11.06-11.152ZM410.818 183.559c-3.055-.14-6.453.803-8.447 4.509v-3.373a.625.625 0 0 0-.624-.626h-4.118a.625.625 0 0 0-.625.626v23.156c0 .346.28.627.625.627h4.118a.625.625 0 0 0 .624-.627v-8.959c0-7.491 4.079-10.559 8.447-10.736a.623.623 0 0 0 .596-.624v-3.346a.626.626 0 0 0-.596-.627ZM337.516 179.383h4.165c.345 0 .625.28.625.626v16.952c0 6.97-4.738 12.039-12.183 12.039-7.446 0-12.184-5.069-12.184-12.039v-16.952c0-.346.28-.626.625-.626h4.165c.346 0 .625.28.625.626v16.934c0 3.736 2.964 6.867 6.688 6.898 4.52.037 6.849-3.006 6.849-7.559v-16.273c0-.346.28-.626.625-.626Z" fill="#252D6C"/><g clip-path="url(#a)"><path fill-rule="evenodd" clip-rule="evenodd" d="M105.566 40.476c3.899 2.57 6.444 6.82 6.444 11.63 0 5.718-3.603 10.64-8.796 12.896 3.655-3.33 5.954-8.175 5.954-13.561 0-4.119-1.346-7.922-3.602-10.965ZM0 93.298C0 41.77 40.93 0 91.427 0c50.496 0 91.426 41.77 91.426 93.298 0 31.426-15.214 59.214-38.534 76.116 11.341 2.553 21.221 5.902 29.047 9.837h-1.985c-16.482-3.708-35.736-6.304-56.625-7.415 2.859-2.326 4.87-5.692 4.59-9.347 1.032-23.294-7.878-35.588-6.768-44.192 1.775-1.347 2.982-3.323 3.734-5.727 1.189 2.203 3.882 5.421 3.882 5.421l1.592 3.06c1.442 1.111 1.119-1.39 1.504-1.425 5.744 3.209 11.996-6.785 2.841-10.362-.585-10.309-3.952-14.427-6.234-17.094 3.393-18.677.393-27.84-5.719-29.598-3.908 5.246-5.43 2.483-4.153.524a10.64 10.64 0 0 1-1.172.709c-2.745 2.3-6.348 3.698-10.291 3.698-8.57 0-15.52-6.593-15.52-14.733s6.95-14.734 15.52-14.734c4.258 0 8.123 1.627 10.921 4.258-3.218-4.406-8.368-7.257-14.174-7.257-9.767 0-17.68 8.08-17.68 18.056 0 3.42.935 6.628 2.562 9.356l-12.076.07-1.486-13.544c-.411-3.664-1.12-6.383-2.003-8.333l-3.086-7.66c-4.495 0-.018 4.748-.91 5.867-2.194 2.737-6.662-.314-3.838 8.56l-2.16 1.295c-1.285 21.886 2.5 26.459 2.5 26.459l16.177 7.371 3.708 20.391c-7.048 3.681-18.415 14.218-19.412 23.145l5.159 23.329c-3.174 7.091-6.899 8.963-4.853 12.521 1.688 4.285 5.675 5.728 9.828 4.757l9.942-10.239c4.276-2.938-1.958-17.82-2.999-26.826 2.93-2.239 5.264-1.793 14.349-6.331 11.551 9.391 6.252 30.665 12.871 37.713l-2.396 8.315c.192.743.446 1.408.752 1.994-2.92-.053-5.858-.088-8.831-.088-29.86 0-57.483 2.982-79.955 8.036H9.487c7.835-3.935 17.707-7.284 29.056-9.837C15.215 152.512 0 124.724 0 93.298Zm134.928-24.614c6.199 0 11.227 5.132 11.227 11.454 0-6.322 5.019-11.454 11.219-11.454-6.2 0-11.219-5.124-11.219-11.455 0 6.33-5.028 11.455-11.227 11.455ZM17.217 77.97c4.03 0 7.292 3.34 7.292 7.45 0-4.11 3.27-7.45 7.302-7.45-4.032 0-7.302-3.332-7.302-7.441 0 4.11-3.261 7.44-7.292 7.44Zm122.538 60.193c1.503 0 2.719 1.242 2.719 2.772 0-1.53 1.215-2.772 2.719-2.772-1.504 0-2.719-1.25-2.719-2.78 0 1.53-1.216 2.78-2.719 2.78Z" fill="#6949B5"/><path fill-rule="evenodd" clip-rule="evenodd" d="M322.651 94.435v54.955c-.428 5.964-6.855 11.499-11.987 11.499h-8.998v-10.012h4.713c.857-.21 1.495-.21 2.142-.638.639-.429 1.714-1.706 2.143-2.554v-53.25h11.987ZM380.012 93.77l10.213 30.184 9.776-30.184h12.757c-1.486 4.224-3.401 8.657-4.888 12.88-1.066 3.165-2.553 6.96-3.83 10.335-.848 2.746-2.124 5.701-3.191 8.657-2.335 6.33-4.678 13.09-7.223 19.63-1.276 3.165-2.343 7.598-5.106 10.974-1.696 1.897-6.165 4.223-8.508 4.223h-7.013v-10.554c.849 0 1.915-.21 2.973-.21 6.812 0 5.955-7.388 8.08-10.554l-16.789-45.38h12.749ZM366.625 105.382c-4.468-10.344-11.909-12.241-18.922-12.241-10.851 0-19.35 5.482-20.627 19.63v10.545c0 .428.429 2.536.429 3.594 1.696 11.822 11.9 16.246 20.198 16.246 7.441 0 17.007-3.795 19.56-14.349 1.058-4.223 1.058-6.969 1.058-10.764 0-4.013.21-8.228-1.696-12.661Zm-10.423 12.661c0 4.643 0 14.139-8.499 14.139-6.173 0-8.508-5.272-8.508-9.915v-8.447c.429-6.75 2.973-9.706 8.508-9.706 8.709 0 8.499 9.286 8.499 13.929Z" fill="#24272C"/><path fill-rule="evenodd" clip-rule="evenodd" d="M302.768 105.697c.218.839.647 2.509.647 3.139v33.69h-12.049v-30.761c-1.076-5.858-4.521-7.528-8.604-7.528-4.949 0-8.394 3.34-8.394 7.948v30.341h-12.05V94.19h11.831l.219 4.18c4.302-3.76 8.175-4.81 12.477-4.81 6.453 0 13.125 2.3 15.923 12.137ZM436.909 75.198v27.613h23.311V75.198h12.827v67.328H460.22v-28.251h-23.311v28.251h-12.828V75.198h12.828ZM257.072 75.198V86.67h-31.67v16.141h26.931v11.464h-26.931v16.779h31.67v11.472h-44.594V75.198h44.594ZM529.271 100.101c0-13.081-8.298-24.903-24.666-24.903-12.758 0-24.239 6.969-24.658 24.483v18.992c0 12.241 8.079 24.483 24.448 24.483 2.334 0 7.441-1.049 9.566-1.688 1.276-.419 3.611-1.897 4.039-1.897.639 0 4.25 4.013 6.384 5.701l6.374-6.759-5.526-5.692c2.973-4.434 3.401-10.135 4.039-14.778v-17.942Zm-12.967 2.536v12.031c-.637 2.746-.637 5.063-1.277 7.809l-4.896-4.853-7.013 6.96 5.745 5.701c-.638.42-3.192 1.268-4.258 1.268-10.414 0-11.691-9.496-11.691-15.617v-13.719c.21-1.058.21-2.326.21-3.594.219-7.17 5.106-12.032 11.481-12.032 10.204 0 11.699 9.715 11.699 16.046Z" fill="#24272C"/><path d="M322.651 75.198H310.41v9.618h12.241v-9.618Z" fill="#24272C"/></g><path d="M277.254 208.588c-1.227 0-2.279-.241-3.156-.723-.877-.482-1.567-1.063-2.072-1.743l-.526 2.006h-3.255v-23.015h3.946v8.45c.504-.658 1.183-1.206 2.038-1.644.877-.439 1.896-.658 3.058-.658 1.534 0 2.904.384 4.11 1.151 1.205.767 2.137 1.808 2.795 3.123.679 1.316 1.019 2.773 1.019 4.373 0 1.578-.351 3.036-1.052 4.373a8.118 8.118 0 0 1-2.861 3.157c-1.205.767-2.553 1.15-4.044 1.15Zm-.559-3.551c1.315 0 2.4-.482 3.255-1.446.877-.965 1.315-2.192 1.315-3.683 0-1.468-.438-2.685-1.315-3.649-.855-.965-1.94-1.447-3.255-1.447s-2.4.482-3.255 1.447c-.833.942-1.249 2.159-1.249 3.649 0 1.491.416 2.718 1.249 3.683.855.964 1.94 1.446 3.255 1.446ZM303.434 191.721v15.782c0 2.324-.69 4.176-2.071 5.557-1.381 1.403-3.299 2.104-5.754 2.104-1.973 0-3.562-.482-4.767-1.447-1.184-.942-1.984-2.202-2.401-3.781l3.683-.756c.351 1.732 1.512 2.598 3.485 2.598 1.206 0 2.148-.373 2.828-1.118.701-.724 1.052-1.765 1.052-3.124v-1.742l-.033-.099c-.614.745-1.304 1.315-2.072 1.71-.767.372-1.731.559-2.893.559-1.863 0-3.332-.57-4.406-1.71-1.052-1.14-1.578-2.871-1.578-5.195v-9.338h3.946v8.68c0 1.403.285 2.401.854 2.992.57.592 1.381.888 2.434.888 1.117 0 2.016-.361 2.696-1.085.701-.723 1.052-1.753 1.052-3.09v-8.385h3.945Z" fill="#252D6C"/><defs><clipPath id="a"><path fill="#fff" d="M0 0h530.758v179.251H0z"/></clipPath></defs></svg>